<?xml version="1.0" standalone="no"?>
<!DOCTYPE svg PUBLIC "-//W3C//DTD SVG 20010904//EN"
 "http://www.w3.org/TR/2001/REC-SVG-20010904/DTD/svg10.dtd">
<svg version="1.0" xmlns="http://www.w3.org/2000/svg"
 width="512.000000pt" height="512.000000pt" viewBox="0 0 512.000000 512.000000"
 preserveAspectRatio="xMidYMid meet">

<g transform="translate(0.000000,512.000000) scale(0.100000,-0.100000)"
fill="#000000" stroke="none">
<path d="M1885 4886 c-384 -136 -676 -324 -955 -612 -634 -655 -839 -1585
-544 -2464 49 -146 177 -402 272 -545 351 -527 909 -904 1522 -1029 115 -23
286 -46 343 -46 36 0 67 35 67 75 0 54 -27 71 -123 80 -194 16 -445 75 -622
145 -111 44 -324 155 -425 223 -471 313 -808 789 -946 1333 -49 195 -67 341
-67 549 -1 273 29 463 114 720 185 559 590 1034 1109 1299 58 30 122 61 144
70 l38 16 -18 -28 c-233 -352 -355 -670 -396 -1033 -11 -96 -10 -109 5 -133
35 -53 114 -41 129 19 4 17 14 83 23 148 51 385 223 763 484 1066 88 101 99
133 61 171 -30 30 -79 24 -215 -24z"/>
<path d="M2946 4917 c-14 -10 -22 -40 -32 -120 -34 -257 -156 -419 -334 -443
-64 -8 -90 -31 -90 -78 0 -42 38 -76 85 -76 132 0 271 -143 319 -326 9 -33 19
-93 22 -134 8 -82 32 -120 77 -120 51 0 68 28 78 125 16 159 57 261 137 347
62 66 118 98 194 108 70 10 98 33 98 79 0 39 -36 67 -95 76 -151 21 -265 144
-316 343 -10 41 -19 99 -19 127 0 67 -27 105 -74 105 -18 0 -40 -6 -50 -13z
m193 -597 l48 -41 -62 -59 c-34 -33 -77 -86 -96 -118 l-34 -59 -46 71 c-25 39
-68 92 -96 117 l-52 46 60 59 c33 32 76 85 96 116 l35 57 50 -75 c27 -41 71
-92 97 -114z"/>
<path d="M1412 3297 c-27 -28 -28 -76 -7 -225 54 -383 217 -759 462 -1069 160
-202 396 -405 627 -538 609 -349 1347 -389 1995 -106 52 22 96 39 98 38 1 -2
-20 -37 -48 -78 -192 -280 -445 -512 -743 -684 -269 -154 -579 -254 -890 -287
-132 -13 -156 -26 -156 -83 0 -44 32 -75 76 -75 54 0 261 29 364 51 159 35
385 115 545 193 388 191 705 469 948 833 76 114 187 319 187 347 0 8 -11 27
-23 42 -35 41 -69 35 -167 -26 -639 -400 -1471 -410 -2123 -26 -219 129 -466
348 -609 539 -229 308 -369 670 -407 1052 -7 74 -13 92 -31 107 -31 25 -72 23
-98 -5z"/>
<path d="M3964 3209 c-29 -15 -44 -51 -44 -108 0 -110 -62 -273 -136 -360 -39
-45 -142 -101 -186 -101 -76 0 -119 -44 -104 -106 7 -28 57 -54 104 -54 44 0
147 -56 186 -101 76 -89 136 -251 136 -366 0 -47 4 -59 30 -85 25 -24 36 -29
58 -24 43 11 59 38 66 118 15 150 62 271 138 355 56 60 114 92 190 104 73 12
101 34 101 79 0 45 -28 67 -101 79 -180 29 -303 202 -328 459 -4 44 -13 81
-23 92 -20 24 -60 32 -87 19z m76 -483 c22 -34 64 -86 94 -115 l55 -51 -54
-51 c-30 -28 -73 -80 -96 -115 l-42 -65 -39 62 c-22 34 -64 86 -94 115 l-54
54 58 58 c33 33 74 85 93 116 18 31 35 56 36 56 2 0 21 -29 43 -64z"/>
</g>
</svg>
