<?xml version="1.0" encoding="UTF-8"?>
<svg version="1.1" xmlns="http://www.w3.org/2000/svg" width="512" height="512">
<path d="M0 0 C0.96461151 0.00021149 1.92922302 0.00042297 2.92306519 0.00064087 C56.62722171 0.11779823 56.62722171 0.11779823 73.6875 12.375 C77.57385002 17.41675138 78.32598512 21.45149534 78.07421875 27.7890625 C77.35375047 32.60673931 74.95058665 35.2402191 71.43310547 38.40039062 C68.44791678 40.54730562 65.96150116 41.48825512 62.4453125 42.53125 C61.22521484 42.90765625 60.00511719 43.2840625 58.74804688 43.671875 C58.10601318 43.86716797 57.46397949 44.06246094 56.80249023 44.26367188 C36.6628442 50.45060276 18.3067146 59.31081424 1.6875 72.375 C0.78773438 73.05433594 -0.11203125 73.73367187 -1.0390625 74.43359375 C-37.69806829 103.03626936 -60.05144514 145.54467655 -65.90454102 191.37353516 C-66.61794614 197.84146632 -66.69631908 204.31043392 -66.6875 210.8125 C-66.68695618 211.50065796 -66.68641235 212.18881592 -66.68585205 212.89782715 C-66.51383872 260.71202947 -46.20600763 303.27694139 -13.3125 337.375 C-1.26807743 349.30172463 12.68391646 358.61543409 27.6875 366.375 C28.59121338 366.84631348 28.59121338 366.84631348 29.51318359 367.32714844 C46.53599129 376.07906658 64.84074373 381.34367343 83.6875 384.375 C84.88246094 384.56835938 86.07742188 384.76171875 87.30859375 384.9609375 C93.81604142 385.72254155 100.39448203 385.61857342 106.9375 385.625 C108.00363525 385.62651062 108.00363525 385.62651062 109.09130859 385.62805176 C124.76747268 385.6130633 139.2481052 383.65463674 154.36254883 379.59057617 C160.68153583 377.9664878 165.44657959 377.93459093 171.5 380.625 C175.27112665 383.64190132 178.40121127 387.01945983 178.99609375 391.9140625 C179.26815635 398.42707625 178.95753441 402.50070875 174.578125 407.453125 C173.64226562 408.40445313 173.64226562 408.40445313 172.6875 409.375 C172.02234375 410.09171875 171.3571875 410.8084375 170.671875 411.546875 C165.10472008 417.35433876 158.99974632 422.40400124 152.6875 427.375 C151.15416016 428.59896484 151.15416016 428.59896484 149.58984375 429.84765625 C117.6652595 455.09091952 78.95758933 472.24924441 38.6875 478.375 C37.56738525 478.55015137 36.44727051 478.72530273 35.29321289 478.90576172 C23.98304686 480.5097463 12.78745086 480.77425288 1.375 480.75 C0.40905914 480.74945618 -0.55688171 480.74891235 -1.55209351 480.74835205 C-17.44927694 480.70732791 -32.7320568 479.78257363 -48.3125 476.375 C-49.29863281 476.16069336 -50.28476563 475.94638672 -51.30078125 475.72558594 C-91.6618419 466.64037995 -128.39784588 447.78107883 -159.3125 420.375 C-159.85793457 419.89272949 -160.40336914 419.41045898 -160.96533203 418.91357422 C-180.61162232 401.43546859 -196.24060307 381.16646725 -209.3125 358.375 C-209.66860352 357.76978516 -210.02470703 357.16457031 -210.39160156 356.54101562 C-230.78848847 321.74747216 -239.7763329 281.05790413 -239.6875 241.0625 C-239.68662384 240.09556213 -239.68574768 239.12862427 -239.68484497 238.13238525 C-239.51076031 179.70620138 -218.05382395 124.07605762 -179.3125 80.375 C-178.83022949 79.82956543 -178.34795898 79.28413086 -177.85107422 78.72216797 C-132.91358705 28.21011955 -67.33652158 -0.13664683 0 0 Z M-138.3125 86.375 C-139.10744873 87.07737793 -139.10744873 87.07737793 -139.91845703 87.79394531 C-146.13886451 93.30607927 -152.07451559 98.9005815 -157.3125 105.375 C-158.11945313 106.344375 -158.92640625 107.31375 -159.7578125 108.3125 C-195.95635454 152.48732579 -210.59861316 207.75995665 -205.99902344 264.22314453 C-201.27784348 307.10618959 -181.83785352 347.3677261 -153.3125 379.375 C-152.61012207 380.16994873 -152.61012207 380.16994873 -151.89355469 380.98095703 C-122.45604867 414.20099194 -82.23701876 434.76956776 -39.3125 444.375 C-38.5484082 444.55434082 -37.78431641 444.73368164 -36.99707031 444.91845703 C11.42320905 455.85592256 61.72235287 442.65761424 104.6875 420.375 C104.6875 420.045 104.6875 419.715 104.6875 419.375 C103.47525757 419.28581299 103.47525757 419.28581299 102.23852539 419.19482422 C44.05849226 414.72797968 -9.13427043 393.2584957 -48.50390625 348.90625 C-72.47633597 320.43094887 -89.24841138 287.00273264 -96.3125 250.375 C-96.46348145 249.60365723 -96.61446289 248.83231445 -96.77001953 248.03759766 C-101.33773604 223.57296716 -101.16191145 196.77345349 -96.3125 172.375 C-96.14089355 171.50665527 -95.96928711 170.63831055 -95.79248047 169.74365234 C-87.77289589 130.56307244 -69.18705181 93.33664557 -40.25 65.375 C-38.08056826 63.59968387 -38.08056826 63.59968387 -38.3125 61.375 C-37.48298828 61.03082031 -37.48298828 61.03082031 -36.63671875 60.6796875 C-33.66362212 59.01075595 -31.56931016 56.87880678 -29.125 54.5 C-23.50236493 49.1569236 -17.41210441 44.71575095 -11.01293945 40.34814453 C-10.31644287 39.87231934 -9.61994629 39.39649414 -8.90234375 38.90625 C-7.97216431 38.28073242 -7.97216431 38.28073242 -7.02319336 37.64257812 C-5.27832369 36.34967626 -3.80696178 34.94697357 -2.3125 33.375 C-52.04706535 30.91221547 -101.80613913 53.83999396 -138.3125 86.375 Z " fill="#000000" transform="translate(286.3125,15.625)"/>
</svg>
