<?xml version="1.0" standalone="no"?>
<!DOCTYPE svg PUBLIC "-//W3C//DTD SVG 20010904//EN"
 "http://www.w3.org/TR/2001/REC-SVG-20010904/DTD/svg10.dtd">
<svg version="1.0" xmlns="http://www.w3.org/2000/svg"
 width="512.000000pt" height="512.000000pt" viewBox="0 0 512.000000 512.000000"
 preserveAspectRatio="xMidYMid meet">

<g transform="translate(0.000000,512.000000) scale(0.100000,-0.100000)"
fill="#000000" stroke="none">
<path d="M2315 5109 c-800 -83 -1501 -518 -1927 -1196 -487 -774 -516 -1777
-75 -2578 200 -364 487 -676 841 -913 238 -159 600 -311 876 -366 214 -43 295
-51 530 -51 236 0 333 10 532 51 880 184 1615 842 1898 1702 92 278 125 491
125 802 0 301 -32 513 -116 775 -124 390 -330 728 -622 1024 -399 404 -893
653 -1462 737 -123 18 -478 26 -600 13z m1258 -1040 c197 -40 346 -118 484
-254 95 -94 126 -151 144 -265 48 -314 -153 -966 -443 -1435 -45 -72 -48 -80
-33 -91 29 -22 124 -27 219 -14 50 7 123 14 162 17 64 5 74 3 93 -16 30 -30
28 -85 -5 -128 -34 -45 -154 -128 -222 -153 -91 -34 -190 -51 -303 -51 -58 0
-112 3 -121 6 -26 10 -35 -17 -52 -170 -29 -245 -66 -482 -85 -545 -47 -151
-150 -248 -311 -294 -197 -56 -339 -35 -439 65 -116 116 -144 239 -159 690
l-7 207 -63 -38 c-135 -82 -333 -91 -479 -23 -94 43 -121 119 -63 173 26 24
155 70 199 70 37 0 113 46 146 88 l36 47 -64 11 c-36 7 -80 20 -98 30 l-34 17
-58 -64 c-33 -35 -104 -116 -158 -180 -126 -148 -184 -189 -263 -189 -126 0
-237 111 -357 355 -143 294 -306 885 -339 1231 -32 348 74 632 291 774 202
131 539 142 906 28 l102 -31 73 37 c147 73 336 97 539 66 80 -12 93 -11 175 9
136 33 187 39 342 40 110 1 168 -4 245 -20z"/>
<path d="M3195 3979 c-44 -5 -86 -12 -94 -14 -8 -3 21 -26 69 -55 101 -60 133
-85 216 -162 117 -110 234 -286 294 -440 36 -92 38 -158 14 -330 -11 -79 -14
-146 -10 -223 22 -401 21 -433 -30 -546 -36 -80 -20 -95 23 -22 247 408 423
932 423 1260 0 165 -7 182 -120 294 -86 86 -108 102 -201 147 -189 90 -354
116 -584 91z"/>
<path d="M2510 3940 c-136 -22 -279 -97 -361 -189 -100 -113 -195 -354 -215
-548 l-7 -61 84 33 c259 105 446 51 503 -146 24 -81 46 -252 45 -354 0 -156
-18 -229 -113 -463 -26 -61 -49 -126 -53 -142 -5 -29 -5 -30 34 -30 58 0 124
-46 154 -106 18 -38 24 -68 26 -134 1 -47 10 -115 19 -150 12 -48 18 -140 24
-350 7 -273 8 -288 34 -360 47 -132 87 -174 178 -186 58 -8 173 18 252 55 126
61 193 165 211 331 3 36 11 83 17 105 6 22 16 78 24 125 8 47 18 108 23 135
11 60 29 221 37 325 6 86 32 150 74 180 15 11 32 20 37 20 4 0 14 4 22 9 12 8
6 21 -29 67 -24 32 -63 94 -86 139 -237 457 -263 524 -272 692 -4 97 -3 106
23 158 49 101 147 148 308 149 61 0 87 4 87 12 0 7 -22 56 -50 111 -140 278
-380 480 -655 553 -91 23 -288 34 -375 20z"/>
<path d="M1510 3933 c-255 -29 -417 -167 -481 -410 -29 -111 -36 -317 -15
-448 70 -423 206 -880 340 -1143 107 -208 210 -284 300 -220 25 17 286 306
321 353 6 10 -4 27 -37 63 -53 56 -89 122 -114 207 -15 52 -16 80 -8 215 5 85
8 248 6 361 -4 231 11 375 54 525 43 149 121 300 197 381 17 18 29 34 26 37
-2 2 -50 15 -107 30 -170 45 -355 63 -482 49z"/>
<path d="M3377 3126 c-86 -31 -111 -79 -104 -195 7 -117 45 -219 175 -473 118
-228 118 -229 142 -118 8 40 11 96 6 172 -18 316 -18 373 -2 486 9 62 16 119
16 127 0 12 -18 15 -97 15 -56 -1 -114 -7 -136 -14z m107 -36 c35 -13 33 -42
-5 -74 -44 -37 -105 -30 -129 14 -18 34 12 55 102 69 4 1 18 -3 32 -9z"/>
<path d="M2148 3115 c-59 -15 -169 -62 -202 -87 -17 -14 -19 -34 -23 -234 -10
-458 -12 -421 23 -494 63 -133 176 -221 299 -231 l37 -4 38 105 c21 58 55 145
75 194 64 153 77 279 50 480 -20 149 -38 209 -75 240 -55 46 -121 55 -222 31z
m203 -71 c10 -9 19 -25 19 -35 0 -26 -48 -59 -86 -59 -66 0 -123 81 -76 110
24 15 120 5 143 -16z"/>
<path d="M3584 1940 c-34 -13 -54 -50 -54 -97 0 -38 3 -43 28 -50 15 -5 72 -7
127 -6 152 3 279 41 374 115 l24 18 -49 -8 c-27 -4 -107 -7 -179 -7 -115 0
-135 3 -176 23 -49 24 -62 25 -95 12z"/>
<path d="M2395 1932 c-6 -4 -36 -40 -68 -80 -69 -85 -116 -113 -247 -143 -50
-11 -90 -25 -90 -29 0 -20 80 -35 185 -35 101 0 115 2 168 28 32 16 80 51 108
78 42 43 49 55 49 90 0 62 -66 120 -105 91z"/>
</g>
</svg>
