<?xml version="1.0" encoding="UTF-8"?>
<svg version="1.1" xmlns="http://www.w3.org/2000/svg" width="512" height="512">
<path d="M0 0 C2.05013207 -0.00270263 4.10026288 -0.00659141 6.15039062 -0.01159668 C10.42330263 -0.0174555 14.69587755 -0.00904641 18.96875 0.00976562 C24.40509892 0.03255272 29.84065751 0.01941007 35.27697754 -0.00452423 C39.50331416 -0.01908063 43.72946797 -0.01433144 47.95581055 -0.00401306 C49.95857846 -0.00137287 51.96136379 -0.00451839 53.96411133 -0.01393127 C68.76510531 -0.06825474 82.29169478 1.1600315 95.6875 8.09375 C96.34621094 8.42963135 97.00492187 8.7655127 97.68359375 9.11157227 C104.65602771 12.86043786 110.03702502 17.87200047 115.5 23.53125 C116.23734375 24.23765625 116.9746875 24.9440625 117.734375 25.671875 C122.01566206 30.01953861 124.96679742 34.77465675 127.75 40.15625 C128.22614746 41.05960083 128.22614746 41.05960083 128.71191406 41.98120117 C134.63041027 54.09980447 136.09796665 66.46619994 136.03344727 79.76293945 C136.04052677 81.32526963 136.0492802 82.88759296 136.05955505 84.4499054 C136.08181977 88.64388473 136.07916559 92.83748272 136.07023358 97.03149819 C136.06508282 100.54807318 136.07244828 104.06457904 136.07970566 107.5811469 C136.09662838 115.87846101 136.09321232 124.17559083 136.07641602 132.47290039 C136.05946125 141.00796242 136.0753924 149.54251421 136.1076389 158.07752067 C136.13438065 165.43676777 136.14159966 172.79585647 136.13312382 180.15514725 C136.12821299 184.53724057 136.1303112 188.91902642 136.15091133 193.3010807 C136.16934388 197.41775869 136.16321844 201.5337037 136.13871193 205.65034294 C136.13372993 207.15389267 136.13712549 208.65749906 136.14986038 210.16100311 C136.21725508 218.8060573 135.81363622 226.33079232 130.5 233.53125 C124.34559431 239.33409653 118.7906328 241.77678478 110.27333069 241.79626465 C109.19755623 241.80283655 109.19755623 241.80283655 108.10004896 241.80954123 C105.7021335 241.82184075 103.30443745 241.82005447 100.90649414 241.81835938 C99.1846484 241.82438532 97.46280561 241.83131001 95.7409668 241.83906555 C92.03383076 241.85395071 88.32674856 241.862703 84.61958504 241.86677551 C78.7470222 241.8734993 72.87457388 241.89526922 67.00205994 241.91931152 C54.52223352 241.96828097 42.04238269 242.00055577 29.5625 242.03125 C16.11920234 242.06437383 2.67594949 242.10050165 -10.76727968 242.15538073 C-16.5931721 242.17860203 -22.4189856 242.19243882 -28.24491966 242.19887543 C-31.88827959 242.20485856 -35.53157655 242.21899398 -39.17490387 242.23521996 C-40.85091639 242.24104423 -42.52694448 242.24357908 -44.20296669 242.24238014 C-64.37139705 242.23207576 -82.74221067 244.41510752 -98.1875 258.78125 C-112.54967563 273.9080785 -113.76009232 293.43442434 -113.9140625 313.2109375 C-113.9328292 314.76035529 -113.95240642 316.30976346 -113.9727478 317.85916138 C-114.0234952 321.88668062 -114.06342309 325.9142328 -114.10089111 329.94189453 C-114.14129628 334.072019 -114.19221957 338.20201336 -114.2421875 342.33203125 C-114.33826463 350.39834772 -114.42288148 358.46473007 -114.5 366.53125 C-121.77323202 366.6336858 -129.04627424 366.70314468 -136.32006836 366.75097656 C-138.78823803 366.77094219 -141.25636133 366.79812437 -143.72436523 366.83300781 C-170.25699211 367.1983082 -170.25699211 367.1983082 -182.5 362.53125 C-183.70644165 362.08483154 -183.70644165 362.08483154 -184.93725586 361.62939453 C-186.91546317 360.82893731 -188.79306646 359.94931583 -190.6875 358.96875 C-191.34621094 358.63286865 -192.00492188 358.2969873 -192.68359375 357.95092773 C-199.65602771 354.20206214 -205.03702502 349.19049953 -210.5 343.53125 C-211.23734375 342.82484375 -211.9746875 342.1184375 -212.734375 341.390625 C-217.0348607 337.0234651 -219.96977243 332.25586588 -222.75 326.84375 C-223.06743164 326.23313721 -223.38486328 325.62252441 -223.71191406 324.9934082 C-230.49278883 311.03771195 -231.10080577 297.85369117 -231.03125 282.65625 C-231.03395162 280.55745261 -231.03783957 278.45865644 -231.04284668 276.35986328 C-231.04871022 271.98262497 -231.04028085 267.60571541 -231.02148438 263.22851562 C-230.99869704 257.65416282 -231.01183709 252.08058073 -231.03577423 246.5062561 C-231.05031765 242.17873463 -231.04558727 237.85139199 -231.03526306 233.52386475 C-231.03261932 231.47003078 -231.03578136 229.41617988 -231.04518127 227.36236572 C-231.09787671 212.61765083 -229.75999663 199.77424234 -222.9375 186.40625 C-222.60161865 185.74302734 -222.2657373 185.07980469 -221.91967773 184.39648438 C-218.17833444 177.39084223 -213.17733551 172.0116837 -207.5 166.53125 C-206.79359375 165.79390625 -206.0871875 165.0565625 -205.359375 164.296875 C-201.01171139 160.01558794 -196.25659325 157.06445258 -190.875 154.28125 C-190.27276611 153.96381836 -189.67053223 153.64638672 -189.05004883 153.31933594 C-175.78067231 146.8388239 -162.65717393 145.94630225 -148.19140625 146.01708984 C-146.29909193 146.01161672 -144.40678204 146.00436816 -142.51448059 145.99549866 C-138.47130762 145.98026839 -134.42838798 145.97731462 -130.38519287 145.98426437 C-123.98862936 145.99512327 -117.59232716 145.97758639 -111.19580078 145.95645142 C-101.08274364 145.92630035 -90.96976494 145.91450631 -80.85666656 145.91087496 C-62.72837909 145.90420443 -44.60014552 145.87517637 -26.47192478 145.8257786 C-20.11552607 145.80930665 -13.75924144 145.80385848 -7.40282345 145.80736899 C-3.45280757 145.80780633 0.49716523 145.80023798 4.44716835 145.79069328 C6.27610411 145.78801364 8.10504863 145.78875686 9.93398094 145.79320335 C12.43347341 145.79885966 14.93265456 145.79228127 17.43212891 145.7828064 C18.15246024 145.78746961 18.87279158 145.79213282 19.61495113 145.79693735 C25.70809299 145.75194684 30.70198389 145.09474227 35.375 141.03125 C38.83472345 136.96098711 38.78233741 134.21232343 38.71484375 129.0078125 C38.43315491 125.76070841 37.65142982 123.97942877 35.5 121.53125 C30.86189022 118.11369542 26.37830451 117.41827644 20.72270203 117.37303162 C19.79027176 117.3632428 18.85784149 117.35345398 17.89715576 117.34336853 C16.38124847 117.33473534 16.38124847 117.33473534 14.8347168 117.32592773 C13.22428246 117.31107834 13.22428246 117.31107834 11.58131409 117.29592896 C8.03730464 117.26437498 4.49328179 117.23958056 0.94921875 117.21484375 C-1.50986578 117.19426896 -3.96894682 117.17327235 -6.42802429 117.15187073 C-12.8970354 117.09670431 -19.36607813 117.04727104 -25.83514404 116.99902344 C-32.43765067 116.9487688 -39.04011143 116.89310341 -45.64257812 116.83789062 C-58.59501262 116.73037544 -71.5474863 116.62873194 -84.5 116.53125 C-84.602307 109.09728901 -84.67184231 101.66351282 -84.71972656 94.22900391 C-84.7397109 91.70549739 -84.76690771 89.1820364 -84.80175781 86.65869141 C-85.1625785 59.84122415 -85.1625785 59.84122415 -80.5 48.53125 C-80.18561981 47.72207123 -79.87123962 46.91289246 -79.54733276 46.07919312 C-78.7639502 44.13035929 -77.89205088 42.27659594 -76.9375 40.40625 C-76.43367798 39.41141602 -76.43367798 39.41141602 -75.91967773 38.39648438 C-72.17833444 31.39084223 -67.17733551 26.0116837 -61.5 20.53125 C-60.79359375 19.79390625 -60.0871875 19.0565625 -59.359375 18.296875 C-55.01171139 14.01558794 -50.25659325 11.06445258 -44.875 8.28125 C-44.27276611 7.96381836 -43.67053223 7.64638672 -43.05004883 7.31933594 C-29.07264067 0.49303466 -15.23355677 -0.07159747 0 0 Z M-22.375 53.65625 C-24.06484251 57.97473642 -24.15960983 61.9579552 -23.5 66.53125 C-21.33701163 70.93733743 -19.10319521 73.7299997 -14.5 75.53125 C-9.45674616 76.21551057 -5.66923116 76.1052362 -1.0625 73.84375 C2.29656012 70.81240306 4.19355631 68.78985352 4.81640625 64.19921875 C5.08213652 58.48173191 4.46847152 54.92874547 0.5 50.53125 C-3.33713196 47.14554533 -7.13401462 47.01833828 -12.0625 47.1796875 C-16.72526146 47.85220117 -19.35190292 50.23007331 -22.375 53.65625 Z " fill="#000000" transform="translate(230.5,-0.53125)"/>
<path d="M0 0 C7.27323202 -0.1024358 14.54627424 -0.17189468 21.82006836 -0.21972656 C24.28823803 -0.23969219 26.75636133 -0.26687437 29.22436523 -0.30175781 C55.75699211 -0.6670582 55.75699211 -0.6670582 68 4 C68.80429443 4.2976123 69.60858887 4.59522461 70.43725586 4.90185547 C72.41546317 5.70231269 74.29306646 6.58193417 76.1875 7.5625 C76.84621094 7.89838135 77.50492187 8.2342627 78.18359375 8.58032227 C85.15602771 12.32918786 90.53702502 17.34075047 96 23 C96.73734375 23.70640625 97.4746875 24.4128125 98.234375 25.140625 C102.5348607 29.5077849 105.46977243 34.27538412 108.25 39.6875 C108.72614746 40.60341919 108.72614746 40.60341919 109.21191406 41.5378418 C115.9529481 55.41154198 116.60127415 68.51304759 116.53125 83.62109375 C116.53395193 85.69507529 116.53784014 87.76905558 116.54284668 89.84303284 C116.54871009 94.16899798 116.54028218 98.49463049 116.52148438 102.82055664 C116.4987114 108.32531232 116.51182807 113.8292869 116.53577423 119.33401394 C116.55033032 123.61096423 116.54558133 127.88773385 116.53526306 132.16469002 C116.53262205 134.1925777 116.53577143 136.22048257 116.54518127 138.24835014 C116.5990979 153.12989079 115.40990725 166.71694891 108.4375 180.1875 C108.10161865 180.84621094 107.7657373 181.50492188 107.41967773 182.18359375 C103.67081214 189.15602771 98.65924953 194.53702502 93 200 C92.29359375 200.73734375 91.5871875 201.4746875 90.859375 202.234375 C86.51171139 206.51566206 81.75659325 209.46679742 76.375 212.25 C75.77276611 212.56743164 75.17053223 212.88486328 74.55004883 213.21191406 C61.28067231 219.6924261 48.15717393 220.58494775 33.69140625 220.51416016 C31.79909193 220.51963328 29.90678204 220.52688184 28.01448059 220.53575134 C23.97130762 220.55098161 19.92838798 220.55393538 15.88519287 220.54698563 C9.48862936 220.53612673 3.09232716 220.55366361 -3.30419922 220.57479858 C-13.41725636 220.60494965 -23.53023506 220.61674369 -33.64333344 220.62037504 C-51.77162091 220.62704557 -69.89985448 220.65607363 -88.02807522 220.7054714 C-94.38447393 220.72194335 -100.74075856 220.72739152 -107.09717655 220.72388101 C-111.04719243 220.72344367 -114.99716523 220.73101202 -118.94716835 220.74055672 C-120.77610411 220.74323636 -122.60504863 220.74249314 -124.43398094 220.73804665 C-126.93347341 220.73239034 -129.43265456 220.73896873 -131.93212891 220.7484436 C-132.65246024 220.74378039 -133.37279158 220.73911718 -134.11495113 220.73431265 C-140.20809299 220.77930316 -145.20198389 221.43650773 -149.875 225.5 C-153.33472345 229.57026289 -153.28233741 232.31892657 -153.21484375 237.5234375 C-152.93315491 240.77054159 -152.15142982 242.55182123 -150 245 C-145.36189022 248.41755458 -140.87830451 249.11297356 -135.22270203 249.15821838 C-134.29027176 249.1680072 -133.35784149 249.17779602 -132.39715576 249.18788147 C-130.88124847 249.19651466 -130.88124847 249.19651466 -129.3347168 249.20532227 C-128.2610939 249.21522186 -127.18747101 249.22512146 -126.08131409 249.23532104 C-122.53730464 249.26687502 -118.99328179 249.29166944 -115.44921875 249.31640625 C-112.99013422 249.33698104 -110.53105318 249.35797765 -108.07197571 249.37937927 C-101.6029646 249.43454569 -95.13392187 249.48397896 -88.66485596 249.53222656 C-82.06234933 249.5824812 -75.45988857 249.63814659 -68.85742188 249.69335938 C-55.90498738 249.80087456 -42.9525137 249.90251806 -30 250 C-29.8975642 257.27323202 -29.82810532 264.54627424 -29.78027344 271.82006836 C-29.76030781 274.28823803 -29.73312563 276.75636133 -29.69824219 279.22436523 C-29.3352521 305.58918961 -29.3352521 305.58918961 -34 318 C-34.31438019 318.83649582 -34.62876038 319.67299164 -34.95266724 320.53483582 C-35.73013747 322.48339743 -36.59844561 324.32496624 -37.5625 326.1875 C-37.89838135 326.84621094 -38.2342627 327.50492187 -38.58032227 328.18359375 C-42.32918786 335.15602771 -47.34075047 340.53702502 -53 346 C-53.70640625 346.73734375 -54.4128125 347.4746875 -55.140625 348.234375 C-59.48828861 352.51566206 -64.24340675 355.46679742 -69.625 358.25 C-70.52835083 358.72614746 -70.52835083 358.72614746 -71.44995117 359.21191406 C-85.42735933 366.03821534 -99.26644323 366.60284747 -114.5 366.53125 C-116.55013207 366.53395263 -118.60026288 366.53784141 -120.65039062 366.54284668 C-124.92330263 366.5487055 -129.19587755 366.54029641 -133.46875 366.52148438 C-138.90509892 366.49869728 -144.34065751 366.51183993 -149.77697754 366.53577423 C-154.00331416 366.55033063 -158.22946797 366.54558144 -162.45581055 366.53526306 C-164.45857846 366.53262287 -166.46136379 366.53576839 -168.46411133 366.54518127 C-183.26510531 366.59950474 -196.79169478 365.3712185 -210.1875 358.4375 C-210.84621094 358.10161865 -211.50492188 357.7657373 -212.18359375 357.41967773 C-219.15602771 353.67081214 -224.53702502 348.65924953 -230 343 C-230.73734375 342.29359375 -231.4746875 341.5871875 -232.234375 340.859375 C-236.5348607 336.4922151 -239.46977243 331.72461588 -242.25 326.3125 C-242.56743164 325.70188721 -242.88486328 325.09127441 -243.21191406 324.4621582 C-249.00970045 312.52975294 -250.59639057 300.88059147 -250.53344727 287.79003906 C-250.54052465 286.21800433 -250.54927721 284.64597641 -250.55955505 283.07395935 C-250.58184554 278.84893108 -250.57915907 274.62428093 -250.57023358 270.39921665 C-250.56508699 266.85783869 -250.57244511 263.31652951 -250.57970566 259.77515864 C-250.59663718 251.41889093 -250.593204 243.06280617 -250.57641602 234.70654297 C-250.5594672 226.10958702 -250.57538228 217.51313784 -250.6076389 208.91623712 C-250.63438075 201.50605544 -250.64159943 194.09603109 -250.63312382 186.68580604 C-250.62821218 182.27239951 -250.63031538 177.85929827 -250.65091133 173.44593048 C-250.66934351 169.29889892 -250.66321883 165.15259498 -250.63871193 161.00560188 C-250.63372948 159.49076507 -250.63712668 157.97587203 -250.64986038 156.46108055 C-250.71694961 147.78977099 -250.33860301 140.22047002 -245 133 C-238.84472092 127.1975938 -233.29131653 124.75446678 -224.77333069 124.73498535 C-223.69755623 124.72841345 -223.69755623 124.72841345 -222.60004896 124.72170877 C-220.2021335 124.70940925 -217.80443745 124.71119553 -215.40649414 124.71289062 C-213.6846484 124.70686468 -211.96280561 124.69993999 -210.2409668 124.69218445 C-206.53383076 124.67729929 -202.82674856 124.668547 -199.11958504 124.66447449 C-193.2470222 124.6577507 -187.37457388 124.63598078 -181.50205994 124.61193848 C-169.02223352 124.56296903 -156.54238269 124.53069423 -144.0625 124.5 C-130.61920234 124.46687617 -117.17594949 124.43074835 -103.73272032 124.37586927 C-97.9068279 124.35264797 -92.0810144 124.33881118 -86.25508034 124.33237457 C-82.61172041 124.32639144 -78.96842345 124.31225602 -75.32509613 124.29603004 C-73.64908361 124.29020577 -71.97305552 124.28767092 -70.29703331 124.28886986 C-50.12860295 124.29917424 -31.75778933 122.11614248 -16.3125 107.75 C-1.95032437 92.6231715 -0.73990768 73.09682566 -0.5859375 53.3203125 C-0.5671708 51.77089471 -0.54759358 50.22148654 -0.5272522 48.67208862 C-0.4765048 44.64456938 -0.43657691 40.6170172 -0.39910889 36.58935547 C-0.35870372 32.459231 -0.30778043 28.32923664 -0.2578125 24.19921875 C-0.16173537 16.13290228 -0.07711852 8.06651993 0 0 Z M-117 296 C-119.7579093 300.42376056 -119.64722237 304.942077 -119 310 C-116.83701163 314.40608743 -114.60319521 317.1987497 -110 319 C-104.95674616 319.68426057 -101.16923116 319.5739862 -96.5625 317.3125 C-93.20343988 314.28115306 -91.30644369 312.25860352 -90.68359375 307.66796875 C-90.41786348 301.95048191 -91.03152848 298.39749547 -95 294 C-98.79916666 290.64779412 -102.60068965 290.43211014 -107.4921875 290.578125 C-111.45823817 291.24531109 -114.28396195 293.06791347 -117 296 Z " fill="#000000" transform="translate(396,146)"/>
</svg>
