<?xml version="1.0" standalone="no"?>
<!DOCTYPE svg PUBLIC "-//W3C//DTD SVG 20010904//EN"
 "http://www.w3.org/TR/2001/REC-SVG-20010904/DTD/svg10.dtd">
<svg version="1.0" xmlns="http://www.w3.org/2000/svg"
 width="512.000000pt" height="512.000000pt" viewBox="0 0 512.000000 512.000000"
 preserveAspectRatio="xMidYMid meet">

<g transform="translate(0.000000,512.000000) scale(0.100000,-0.100000)"
fill="#000000" stroke="none">
<path d="M1445 4533 c-127 -46 -215 -128 -276 -258 -53 -114 -71 -204 -77
-381 -5 -176 7 -299 50 -509 17 -82 33 -161 35 -175 4 -23 -2 -27 -89 -60
-234 -86 -419 -198 -554 -334 -136 -137 -193 -266 -181 -416 13 -179 135 -351
353 -496 88 -59 289 -158 394 -195 36 -12 69 -26 74 -30 4 -4 -3 -56 -17 -116
-54 -233 -61 -295 -61 -533 0 -201 2 -233 22 -305 49 -179 139 -303 264 -364
276 -135 644 9 1112 432 l75 69 81 -72 c230 -202 472 -342 669 -386 52 -12
102 -15 172 -12 89 4 107 9 174 42 234 116 337 409 295 837 -9 88 -36 256 -56
349 -5 24 -1 27 68 49 112 36 284 107 378 158 347 186 518 425 480 671 -42
275 -351 530 -830 687 -47 15 -89 31 -93 35 -5 4 3 65 17 136 92 476 37 836
-156 1009 -240 215 -637 119 -1090 -264 -59 -50 -110 -91 -114 -91 -4 0 -41
33 -83 73 -216 206 -451 360 -651 428 -82 28 -112 33 -215 36 -97 3 -130 0
-170 -14z m329 -174 c184 -61 376 -188 611 -403 l70 -64 -71 -74 c-87 -91
-197 -224 -298 -356 l-75 -100 -58 -7 c-121 -14 -353 -56 -476 -86 -71 -17
-132 -27 -137 -23 -13 14 -58 230 -76 365 -20 153 -14 402 11 494 71 254 240
341 499 254z m1783 -54 c108 -32 195 -147 230 -305 34 -151 15 -507 -37 -701
l-10 -36 -81 18 c-103 24 -335 64 -465 79 l-102 12 -106 141 c-58 78 -150 194
-205 257 l-99 115 21 24 c12 13 67 59 122 104 299 241 557 344 732 292z m-894
-644 c51 -60 121 -145 155 -189 l62 -81 -322 -3 c-178 -2 -324 -2 -326 -2 -10
4 316 383 330 384 4 0 50 -49 101 -109z m256 -438 l84 -6 62 -96 c141 -218
375 -645 375 -685 0 -9 -31 -79 -69 -155 -143 -284 -346 -616 -388 -632 -76
-29 -844 -17 -882 14 -57 47 -451 720 -451 771 0 39 237 457 379 669 l70 105
63 6 c35 3 81 8 103 9 79 7 572 7 654 0z m660 -89 c63 -13 117 -26 119 -28 9
-10 -154 -466 -166 -466 -4 0 -32 48 -62 107 -30 58 -99 181 -154 272 -54 91
-100 169 -102 172 -5 9 232 -28 365 -57z m-1699 42 c0 -1 -39 -66 -87 -143
-49 -77 -119 -199 -158 -271 -38 -72 -73 -132 -76 -132 -8 0 -115 271 -149
373 -12 38 -18 72 -14 77 23 21 484 113 484 96z m2113 -157 c342 -126 570
-285 649 -456 65 -138 32 -268 -101 -403 -79 -80 -204 -164 -344 -230 -115
-54 -334 -133 -341 -122 -2 4 -16 48 -31 97 -30 101 -115 329 -167 450 l-35
80 63 150 c35 83 87 223 116 312 31 95 58 163 66 163 6 0 63 -19 125 -41z
m-2718 -114 c47 -134 107 -285 154 -388 17 -38 31 -74 31 -80 0 -7 -29 -80
-64 -163 -36 -83 -88 -216 -116 -296 l-52 -145 -66 24 c-117 41 -325 149 -407
210 -100 74 -175 156 -212 231 -23 47 -28 70 -28 132 0 66 4 84 34 144 75 152
272 296 571 417 52 21 99 37 104 36 5 -2 28 -57 51 -122z m340 -761 c48 -95
164 -292 238 -406 21 -32 34 -58 29 -58 -25 0 -254 45 -364 71 -87 21 -128 35
-128 44 0 31 158 445 169 445 3 0 28 -44 56 -96z m1973 -46 c69 -184 114 -330
105 -339 -16 -15 -468 -98 -478 -87 -2 2 14 33 37 68 57 90 199 341 239 423
18 37 36 67 40 67 4 0 29 -60 57 -132z m-2113 -503 c80 -20 320 -62 511 -91
24 -3 41 -19 80 -71 76 -104 212 -269 304 -368 l83 -90 -74 -68 c-375 -350
-722 -502 -921 -404 -90 44 -146 123 -185 260 -24 84 -28 358 -8 502 15 111
61 340 72 358 3 4 12 5 21 3 10 -3 62 -17 117 -31z m2270 -4 c3 -6 17 -76 32
-158 35 -203 38 -467 5 -586 -57 -208 -155 -297 -327 -297 -186 0 -459 144
-724 383 l-52 46 100 116 c55 63 146 177 203 253 56 75 106 140 111 143 5 4
45 9 89 13 90 7 393 58 478 80 69 17 78 18 85 7z m-874 -126 c-106 -142 -295
-365 -311 -365 -9 0 -175 186 -263 295 l-64 81 323 -1 c213 0 320 -3 315 -10z"/>
<path d="M2477 2899 c-115 -27 -249 -131 -306 -239 -157 -294 22 -650 352
-702 98 -15 188 0 283 46 244 121 334 409 207 660 -32 64 -125 157 -189 189
-105 53 -240 71 -347 46z m258 -181 c106 -55 166 -148 173 -268 8 -138 -53
-242 -176 -302 -132 -65 -277 -37 -376 73 -151 168 -83 432 132 514 60 23 185
14 247 -17z"/>
</g>
</svg>
