<?xml version="1.0" standalone="no"?>
<!DOCTYPE svg PUBLIC "-//W3C//DTD SVG 20010904//EN"
 "http://www.w3.org/TR/2001/REC-SVG-20010904/DTD/svg10.dtd">
<svg version="1.0" xmlns="http://www.w3.org/2000/svg"
 width="512.000000pt" height="512.000000pt" viewBox="0 0 512.000000 512.000000"
 preserveAspectRatio="xMidYMid meet">

<g transform="translate(0.000000,512.000000) scale(0.100000,-0.100000)"
fill="#000000" stroke="none">
<path d="M2501 4894 c-12 -15 -21 -32 -21 -39 0 -30 -105 -221 -159 -287 -135
-171 -331 -289 -550 -333 -62 -13 -116 -16 -215 -13 -160 5 -257 30 -394 99
-104 53 -141 60 -172 29 -25 -25 -26 -70 -1 -136 49 -127 64 -333 37 -476 -43
-219 -165 -425 -331 -558 -142 -112 -254 -161 -472 -206 -31 -6 -63 -43 -63
-72 0 -37 17 -59 68 -89 300 -173 473 -472 473 -818 0 -227 -68 -418 -211
-596 -64 -80 -67 -125 -8 -155 25 -13 40 -13 103 -3 101 16 301 7 390 -18 174
-49 315 -133 436 -260 164 -171 259 -394 259 -606 0 -118 22 -157 88 -157 23
0 49 20 133 104 113 112 206 174 341 226 227 88 498 77 724 -29 114 -54 192
-111 292 -215 68 -71 88 -86 113 -86 67 0 89 38 89 157 0 226 111 467 293 639
120 113 248 184 413 230 78 22 286 30 379 15 63 -10 78 -10 103 3 60 31 56 75
-13 162 -94 117 -167 278 -196 431 -17 92 -6 319 19 408 66 224 203 409 403
541 97 64 109 77 109 117 -1 38 -45 77 -88 77 -11 0 -59 11 -106 25 -322 93
-557 327 -651 650 -50 170 -43 404 16 559 26 68 25 107 -4 134 -34 32 -63 27
-169 -27 -155 -79 -232 -96 -428 -96 -181 0 -251 13 -386 75 -224 101 -424
317 -493 532 -20 62 -47 88 -91 88 -30 0 -43 -6 -59 -26z m119 -351 c108 -167
303 -327 494 -403 161 -65 213 -74 416 -74 189 0 222 5 387 59 22 7 23 6 15
-41 -4 -27 -7 -116 -6 -199 1 -128 5 -164 27 -250 31 -117 96 -257 168 -360
58 -85 198 -223 280 -277 66 -44 204 -114 242 -123 15 -4 27 -8 27 -10 0 -1
-40 -42 -89 -91 -215 -216 -321 -473 -321 -779 0 -190 35 -338 119 -500 20
-38 37 -73 39 -77 2 -5 -32 -8 -76 -8 -265 0 -560 -132 -755 -339 -141 -150
-239 -339 -280 -539 l-12 -61 -69 54 c-385 298 -947 298 -1332 0 l-69 -54 -12
61 c-28 136 -93 290 -173 408 -189 278 -541 470 -862 470 -44 0 -78 3 -76 8 2
4 21 41 42 82 81 156 117 309 117 495 0 304 -108 564 -322 779 -49 49 -88 90
-87 90 2 1 30 12 63 25 328 128 577 427 666 801 15 60 19 314 7 394 -8 47 -7
48 15 41 154 -48 208 -58 347 -62 166 -6 265 8 408 58 219 77 435 247 552 436
25 40 47 72 50 72 3 0 30 -39 60 -86z"/>
<path d="M2315 3971 c-449 -81 -831 -365 -1033 -768 -100 -197 -152 -419 -152
-643 0 -544 302 -1035 787 -1278 197 -100 419 -152 643 -152 385 0 737 146
1010 420 218 217 359 495 406 795 21 142 15 378 -15 510 -61 277 -192 517
-391 715 -198 198 -437 329 -715 392 -132 29 -404 34 -540 9z m456 -157 c180
-31 376 -111 519 -212 91 -64 238 -210 303 -300 270 -375 313 -878 112 -1291
-63 -130 -125 -220 -224 -323 -245 -258 -568 -398 -921 -398 -256 0 -493 72
-714 217 -91 60 -279 248 -339 339 -258 394 -289 873 -82 1287 119 239 343
458 584 573 94 45 233 90 336 108 111 20 311 20 426 0z"/>
<path d="M2313 3655 c-255 -46 -480 -184 -633 -387 -89 -117 -180 -321 -180
-400 0 -38 40 -78 78 -78 42 0 67 30 92 111 110 362 441 609 816 609 77 0 87
2 109 25 16 15 25 36 25 55 0 19 -9 40 -25 55 -22 23 -31 25 -117 24 -51 0
-125 -7 -165 -14z"/>
</g>
</svg>
